<mxfile host="app.diagrams.net" modified="2021-03-02T11:49:51.144Z" agent="5.0 (Windows NT 10.0; Win64; x64) AppleWebKit/537.36 (KHTML, like Gecko) Chrome/85.0.4183.83 Safari/537.36" etag="-asSX5QvIlL3RaDPAEHl" version="14.4.3" type="github">
  <diagram id="B9RyF7u5UUXZ5mrtz3hZ" name="Page-1">
    <mxGraphModel dx="1038" dy="580" grid="1" gridSize="10" guides="1" tooltips="1" connect="1" arrows="1" fold="1" page="1" pageScale="1" pageWidth="827" pageHeight="1169" math="0" shadow="0">
      <root>
        <mxCell id="0" />
        <mxCell id="1" parent="0" />
        <mxCell id="f9Jed6IKaxDTFcYMmyne-17" value="" style="rounded=1;whiteSpace=wrap;html=1;fillColor=none;dashed=1;" vertex="1" parent="1">
          <mxGeometry x="390" y="140" width="290" height="280" as="geometry" />
        </mxCell>
        <mxCell id="f9Jed6IKaxDTFcYMmyne-15" value="" style="rounded=0;whiteSpace=wrap;html=1;fillColor=none;" vertex="1" parent="1">
          <mxGeometry x="160" y="270" width="420" height="120" as="geometry" />
        </mxCell>
        <mxCell id="f9Jed6IKaxDTFcYMmyne-1" value="&lt;font style=&quot;font-size: 14px&quot;&gt;首页&lt;/font&gt;" style="rounded=0;whiteSpace=wrap;html=1;" vertex="1" parent="1">
          <mxGeometry x="90" y="193" width="80" height="40" as="geometry" />
        </mxCell>
        <mxCell id="f9Jed6IKaxDTFcYMmyne-3" value="&lt;font style=&quot;font-size: 14px&quot;&gt;帮助&lt;/font&gt;" style="rounded=0;whiteSpace=wrap;html=1;" vertex="1" parent="1">
          <mxGeometry x="200" y="193" width="80" height="40" as="geometry" />
        </mxCell>
        <mxCell id="f9Jed6IKaxDTFcYMmyne-4" value="&lt;font style=&quot;font-size: 14px&quot;&gt;字典管理&lt;/font&gt;" style="rounded=0;whiteSpace=wrap;html=1;" vertex="1" parent="1">
          <mxGeometry x="460" y="193" width="80" height="40" as="geometry" />
        </mxCell>
        <mxCell id="f9Jed6IKaxDTFcYMmyne-5" value="&lt;font style=&quot;font-size: 14px&quot;&gt;用户管理&lt;/font&gt;" style="rounded=0;whiteSpace=wrap;html=1;" vertex="1" parent="1">
          <mxGeometry x="570" y="193" width="80" height="40" as="geometry" />
        </mxCell>
        <mxCell id="f9Jed6IKaxDTFcYMmyne-6" value="&lt;font style=&quot;font-size: 14px&quot;&gt;查询&lt;/font&gt;" style="rounded=1;whiteSpace=wrap;html=1;" vertex="1" parent="1">
          <mxGeometry x="400" y="280" width="50" height="40" as="geometry" />
        </mxCell>
        <mxCell id="f9Jed6IKaxDTFcYMmyne-7" value="&lt;font style=&quot;font-size: 14px&quot;&gt;检索&lt;/font&gt;" style="rounded=1;whiteSpace=wrap;html=1;" vertex="1" parent="1">
          <mxGeometry x="480" y="280" width="50" height="40" as="geometry" />
        </mxCell>
        <mxCell id="f9Jed6IKaxDTFcYMmyne-8" value="&lt;font style=&quot;font-size: 14px&quot;&gt;合并查看&lt;/font&gt;" style="rounded=1;whiteSpace=wrap;html=1;" vertex="1" parent="1">
          <mxGeometry x="200" y="330" width="60" height="40" as="geometry" />
        </mxCell>
        <mxCell id="f9Jed6IKaxDTFcYMmyne-9" value="&lt;font style=&quot;font-size: 14px&quot;&gt;导出Excel&lt;/font&gt;" style="rounded=1;whiteSpace=wrap;html=1;" vertex="1" parent="1">
          <mxGeometry x="280" y="280" width="50" height="40" as="geometry" />
        </mxCell>
        <mxCell id="f9Jed6IKaxDTFcYMmyne-10" value="&lt;font style=&quot;font-size: 14px&quot;&gt;复制序列&lt;/font&gt;" style="rounded=1;whiteSpace=wrap;html=1;" vertex="1" parent="1">
          <mxGeometry x="280" y="330" width="58" height="40" as="geometry" />
        </mxCell>
        <mxCell id="f9Jed6IKaxDTFcYMmyne-11" value="&lt;font style=&quot;font-size: 14px&quot;&gt;工具栏&lt;/font&gt;" style="rounded=1;whiteSpace=wrap;html=1;" vertex="1" parent="1">
          <mxGeometry x="200" y="280" width="50" height="40" as="geometry" />
        </mxCell>
        <mxCell id="f9Jed6IKaxDTFcYMmyne-13" value="&lt;font style=&quot;font-size: 14px&quot;&gt;操作数据&lt;/font&gt;" style="rounded=1;whiteSpace=wrap;html=1;" vertex="1" parent="1">
          <mxGeometry x="400" y="330" width="60" height="40" as="geometry" />
        </mxCell>
        <mxCell id="f9Jed6IKaxDTFcYMmyne-14" value="&lt;font style=&quot;font-size: 14px&quot;&gt;导入Excel&lt;/font&gt;" style="rounded=1;whiteSpace=wrap;html=1;" vertex="1" parent="1">
          <mxGeometry x="480" y="330" width="60" height="40" as="geometry" />
        </mxCell>
        <mxCell id="f9Jed6IKaxDTFcYMmyne-16" value="" style="endArrow=classic;html=1;exitX=0.5;exitY=1;exitDx=0;exitDy=0;entryX=0.5;entryY=0;entryDx=0;entryDy=0;" edge="1" parent="1" source="f9Jed6IKaxDTFcYMmyne-2" target="f9Jed6IKaxDTFcYMmyne-15">
          <mxGeometry width="50" height="50" relative="1" as="geometry">
            <mxPoint x="390" y="300" as="sourcePoint" />
            <mxPoint x="440" y="250" as="targetPoint" />
          </mxGeometry>
        </mxCell>
        <mxCell id="f9Jed6IKaxDTFcYMmyne-18" value="&lt;h5&gt;登录可用&lt;/h5&gt;" style="text;html=1;strokeColor=none;fillColor=none;align=center;verticalAlign=middle;whiteSpace=wrap;rounded=0;dashed=1;" vertex="1" parent="1">
          <mxGeometry x="600" y="370" width="60" height="20" as="geometry" />
        </mxCell>
        <mxCell id="f9Jed6IKaxDTFcYMmyne-19" value="仅限管理员" style="text;html=1;strokeColor=none;fillColor=none;align=center;verticalAlign=middle;whiteSpace=wrap;rounded=0;dashed=1;" vertex="1" parent="1">
          <mxGeometry x="575" y="240" width="70" height="20" as="geometry" />
        </mxCell>
        <mxCell id="f9Jed6IKaxDTFcYMmyne-2" value="&lt;font style=&quot;font-size: 18px&quot;&gt;数据库&lt;/font&gt;" style="rounded=0;whiteSpace=wrap;html=1;" vertex="1" parent="1">
          <mxGeometry x="310" y="173" width="120" height="60" as="geometry" />
        </mxCell>
        <mxCell id="f9Jed6IKaxDTFcYMmyne-20" value="&lt;h2&gt;非细胞合成体系超稳酶数据库&lt;/h2&gt;" style="rounded=1;whiteSpace=wrap;html=1;fillColor=none;" vertex="1" parent="1">
          <mxGeometry x="280" y="40" width="250" height="60" as="geometry" />
        </mxCell>
        <mxCell id="f9Jed6IKaxDTFcYMmyne-21" value="" style="endArrow=none;html=1;exitX=0.5;exitY=0;exitDx=0;exitDy=0;entryX=0.5;entryY=1;entryDx=0;entryDy=0;" edge="1" parent="1" source="f9Jed6IKaxDTFcYMmyne-1" target="f9Jed6IKaxDTFcYMmyne-20">
          <mxGeometry width="50" height="50" relative="1" as="geometry">
            <mxPoint x="390" y="190" as="sourcePoint" />
            <mxPoint x="440" y="140" as="targetPoint" />
          </mxGeometry>
        </mxCell>
        <mxCell id="f9Jed6IKaxDTFcYMmyne-22" value="" style="endArrow=none;html=1;entryX=0.5;entryY=1;entryDx=0;entryDy=0;" edge="1" parent="1" target="f9Jed6IKaxDTFcYMmyne-20">
          <mxGeometry width="50" height="50" relative="1" as="geometry">
            <mxPoint x="240" y="190" as="sourcePoint" />
            <mxPoint x="440" y="140" as="targetPoint" />
          </mxGeometry>
        </mxCell>
        <mxCell id="f9Jed6IKaxDTFcYMmyne-23" value="" style="endArrow=none;html=1;exitX=0.5;exitY=0;exitDx=0;exitDy=0;" edge="1" parent="1" source="f9Jed6IKaxDTFcYMmyne-2">
          <mxGeometry width="50" height="50" relative="1" as="geometry">
            <mxPoint x="390" y="190" as="sourcePoint" />
            <mxPoint x="400" y="100" as="targetPoint" />
          </mxGeometry>
        </mxCell>
        <mxCell id="f9Jed6IKaxDTFcYMmyne-24" value="" style="endArrow=none;html=1;exitX=0.5;exitY=0;exitDx=0;exitDy=0;" edge="1" parent="1" source="f9Jed6IKaxDTFcYMmyne-4">
          <mxGeometry width="50" height="50" relative="1" as="geometry">
            <mxPoint x="390" y="190" as="sourcePoint" />
            <mxPoint x="400" y="100" as="targetPoint" />
          </mxGeometry>
        </mxCell>
        <mxCell id="f9Jed6IKaxDTFcYMmyne-25" value="" style="endArrow=none;html=1;exitX=0.5;exitY=0;exitDx=0;exitDy=0;" edge="1" parent="1" source="f9Jed6IKaxDTFcYMmyne-5">
          <mxGeometry width="50" height="50" relative="1" as="geometry">
            <mxPoint x="390" y="190" as="sourcePoint" />
            <mxPoint x="400" y="100" as="targetPoint" />
          </mxGeometry>
        </mxCell>
      </root>
    </mxGraphModel>
  </diagram>
</mxfile>
